/* XPM */
static char *_978a0dff988404be552673b54931665fZQpctu0fZL1G0nt[] = {
/* columns rows colors chars-per-pixel */
"32 32 2 1 ",
"  c #FF84BC",
". c #FF9DC0",
/* pixels */
".......                  .......",
"......                    ......",
".....                      .....",
"....                        ....",
"...                          ...",
"..                            ..",
".                              .",
"                                ",
"                                ",
"                                ",
"                                ",
"           ...    ...           ",
"          .....  .....          ",
"         ..............         ",
"         ..............         ",
"         ..............         ",
"         ..............         ",
"          ............          ",
"           ..........           ",
"            ........            ",
"             ......             ",
"              ....              ",
"               ..               ",
"                                ",
"                                ",
"                                ",
"                                ",
"  ...                      ...  ",
" .....                    ..... ",
".......                  .......",
".......                  .......",
".......                  ......."
};
