/* XPM */
static char *a9a8779ca57d41d5db76ca5ad3d7faebO1VSJdIY7uHLE9pq[] = {
/* columns rows colors chars-per-pixel */
"43 32 110 2 ",
"   c None",
".  c #0E0E0E",
"X  c #130F0F",
"o  c #100F11",
"O  c #141314",
"+  c #1B1616",
"@  c #161618",
"#  c #191718",
"$  c #1C1B1C",
"%  c #2B1011",
"&  c #241C1E",
"*  c #2A1C1D",
"=  c #3A1C1D",
"-  c #1F1E20",
";  c #201F20",
":  c #3C1F20",
">  c #242325",
",  c #2A2425",
"<  c #272628",
"1  c #282729",
"2  c #2C2A2C",
"3  c #332C2D",
"4  c #3A2D2F",
"5  c #2F2E30",
"6  c #302F31",
"7  c #333234",
"8  c #3A3436",
"9  c #363538",
"0  c #39373A",
"q  c #3C3A3C",
"w  c #4E1A1A",
"e  c #4C2323",
"r  c #423436",
"t  c #433738",
"y  c #433C3D",
"u  c #583535",
"i  c #612E2F",
"p  c #3E3D40",
"a  c #403F41",
"s  c #444345",
"d  c #4A4042",
"f  c #474648",
"g  c #494749",
"h  c #4C4A4C",
"j  c #514B4D",
"k  c #4E4D51",
"l  c #514F51",
"z  c #545255",
"x  c #595656",
"c  c #565558",
"v  c #585759",
"b  c #5C5A5C",
"n  c #6E4042",
"m  c #6B4B4C",
"M  c #5F5E60",
"N  c #605F61",
"B  c #636264",
"V  c #686667",
"C  c #676668",
"Z  c #69676A",
"A  c #6F6D6E",
"S  c #6C6A6C",
"D  c #706F71",
"F  c #717072",
"G  c #727174",
"H  c #737274",
"J  c #737375",
"K  c #707177",
"L  c #747274",
"P  c #747375",
"I  c #747376",
"U  c #757475",
"Y  c #747274",
"T  c #777678",
"R  c #777679",
"E  c #787778",
"W  c #78777A",
"Q  c #79787A",
"!  c #7E7D7F",
"~  c #7D7C7D",
"^  c #E2372E",
"/  c #A9423E",
"(  c #9D7A7B",
")  c #7F7E80",
"_  c #7E7F84",
"`  c #807F82",
"'  c #807F81",
"]  c #818081",
"[  c #828083",
"{  c #828184",
"}  c #838284",
"|  c #838285",
" . c #848385",
".. c #838184",
"X. c #878588",
"o. c #878688",
"O. c #888688",
"+. c #89878B",
"@. c #89888B",
"#. c #8A888B",
"$. c #8A898B",
"%. c #8C8B8D",
"&. c #8F8E90",
"*. c #8E8E96",
"=. c #939193",
"-. c #949395",
";. c #909199",
":. c #98979F",
">. c #B7B7BE",
",. c #B8B6BB",
/* pixels */
"                                                                                      ",
"                                                                                      ",
"                                                                                      ",
"                                        7 5 2 5 0 h k n i r 7 9 0 s z B H (           ",
"                                      7 7 9 0 a g z l j h g s a q 9 7 7 9 / ^         ",
"                                    q s s q 7 q s f h h g s s s h g s p 3 e u         ",
"                                b C S S Z Z b s 9 q k c b c l g s 7 2 < < > <         ",
"                              > 2 7 q h B P [ O.X.#.{ B h 0 2 < > > ; $ # $ $         ",
"                            < 2 0 9 2 $ $ > 7 s b Z z 2 < > < ; $ # - # # # $         ",
"                            1 9 q 0 7 > > < > $ k k q > > > 1 # # # $ # # # >         ",
"                          5 6 q q q 5 > 5 7 5 h ;.c p - $ > < # O O # O # $ 9         ",
"                        p 1 4 a p 5 < 2 2 3 0 :.*.f q 3 2 ; $ O . O > > 2 q c         ",
"                        2 5 < 2 5 < 7 q q 0 b >.H 7 > 3 3 > # # $ < 9 q h h h         ",
"                    2 0 7 s N b g q 6 1 2 7 B ,.z 9 y t 7 1 1 1 9 s g f 7 7 h         ",
"                > h W Q P [ { N S U W S 7 1 h _ 7 0 b H 7 7 0 s s s q 7 s g 0 M       ",
"          =.7 < c %.&.#.#.X.) Q { O.` R b x B c 5 2 9 g s s g g l v 1 # g d 1 Z       ",
"        C l v B g h B  .~ H P R F P B B S V b g q g g a q s z z v 0 o 1 s q y m       ",
"      { b 1 > 0 c B b D S S S S Z B b l s g k h g g g h l z g s 6 O . 2 7 2 s         ",
"        9 0 7 > $ 2 c B b z Z z s l z z c b c s h l l k k s 5 @ O O O ; 2 q y         ",
"      b , = 7 7 7 2 q 8 7 s -.` N b b c z s 7 7 g l h q < O o O # > O # > a           ",
"      s 1 : h 1 > 0 q h B c q g Z B b Z S v s h q 9 ; O o O O # 2 h O X + ,           ",
"      q > + > > $ $ $ z S q 7 a 0 s ~ ~ b 0 ; s 3 O O @ # $                           ",
"      > < > O O O > # 9 U g q 7 g h s y r 4 & # > - - >                               ",
"      7 7 F h $ $ - # O > - ; q N a 3 y q q 8 O $ <                                   ",
"      q $ 6 s $ > a 2 # . . O 2 q + 3 2 # 1 y                                         ",
"          $ @ O O ; > # O O > 9 $ + 2 , * 1 8                                         ",
"              $ $ # O O O O O O O & > > , 1 ,                                         ",
"                > 2 < $ O O O w w & > > a q                                           ",
"                                % + + $ 3 8                                           ",
"                                  o + & 4                                             ",
"                                                                                      ",
"                                                                                      "
};
