/* XPM */
static char *_6348af0709146c5d9420a588fb366f1uySUo9wxYMj3xM4r[] = {
/* columns rows colors chars-per-pixel */
"32 32 247 2 ",
"   c #47704C",
".  c black",
"X  c black",
"o  c black",
"O  c black",
"+  c black",
"@  c black",
"#  c black",
"$  c black",
"%  c black",
"&  c #1A4A00",
"*  c #296100",
"=  c #245B00",
"-  c #1F5500",
";  c #84AA00",
":  c #86AD02",
">  c #82AA01",
",  c #86AD01",
"<  c black",
"1  c black",
"2  c black",
"3  c black",
"4  c black",
"5  c black",
"6  c black",
"7  c #183C00",
"8  c #061500",
"9  c black",
"0  c black",
"q  c None",
"w  c black",
"e  c black",
"r  c #80AA00",
"t  c #061500",
"y  c #163700",
"u  c #83AA00",
"i  c #7EA701",
"p  c #2F6500",
"a  c #7DA701",
"s  c #79A301",
"d  c #79A301",
"f  c #86AD01",
"g  c #205900",
"h  c #328B02",
"j  c #7BC802",
"k  c #71AD58",
"l  c #2D8702",
"z  c #D7EFAD",
"x  c #7FCC02",
"c  c #F9F9F5",
"v  c #D2DEBB",
"b  c #D0DDBB",
"n  c #FCFCFA",
"m  c #6DAE02",
"M  c #FAFAF6",
"N  c #448D02",
"B  c #FBFBF8",
"V  c #FDFDFC",
"C  c #FBFAF7",
"Z  c #FEFEFD",
"A  c #FEFEFE",
"S  c #449A02",
"D  c #368B02",
"F  c #338102",
"G  c #4A9F02",
"H  c #51A502",
"J  c #317902",
"K  c #57AA02",
"L  c #C3D2B4",
"P  c #5EB002",
"I  c #C5D4B5",
"U  c #6FB402",
"Y  c #F3F6ED",
"T  c #C8D4B5",
"R  c #549502",
"E  c #C9D6B6",
"W  c #CFDBBA",
"Q  c #CBD8B8",
"!  c #509702",
"~  c #CDDAB9",
"^  c #378F02",
"/  c #3D9402",
"(  c #71AD57",
")  c #346900",
"_  c #358902",
"`  c #2F8804",
"'  c #6AA94F",
"]  c #2B7601",
"[  c #267001",
"{  c #328902",
"}  c #3A6F00",
"|  c #4B942B",
" . c #4B9827",
".. c #398E10",
"X. c #338002",
"o. c #549D31",
"O. c #4B9921",
"+. c #417400",
"@. c #388302",
"#. c #348C04",
"$. c #477901",
"%. c #327E02",
"&. c #398802",
"*. c #83BD02",
"=. c #7FBC02",
"-. c #3D8202",
";. c #4E7F01",
":. c #317A02",
">. c #D6EFAB",
",. c #3F8902",
"<. c #A9DB4F",
"1. c #7BC602",
"2. c #558401",
"3. c #CDEC99",
"4. c #428602",
"5. c #6FB302",
"6. c #71B802",
"7. c #82CD07",
"8. c #8FD221",
"9. c #5B8A01",
"0. c #488B02",
"q. c #AEDF5F",
"w. c #9BD53F",
"e. c #4E9002",
"r. c #70B602",
"t. c #91AE73",
"y. c #7DC906",
"u. c #A1B884",
"i. c #5DA302",
"p. c #D3E0BB",
"a. c #4B9202",
"s. c #55A502",
"d. c #F2F5EC",
"f. c #EEF1E7",
"g. c #579C02",
"h. c #749F43",
"j. c #599902",
"k. c #7DA644",
"l. c #3F930C",
"z. c #3E9403",
"x. c #C3D3B4",
"c. c #327C02",
"v. c #327D02",
"b. c #358602",
"n. c #337F02",
"m. c #618C01",
"M. c #378D02",
"N. c #6A9201",
"B. c #D1DCC4",
"V. c #658D01",
"C. c #A5DB4C",
"Z. c #739B01",
"A. c #689742",
"S. c #3B850B",
"D. c #5D8932",
"F. c #86AA63",
"G. c #60AA02",
"H. c #3A8A02",
"J. c #77B413",
"K. c #A1C567",
"L. c #9DC267",
"P. c #72BA02",
"I. c #91AF73",
"U. c #70B502",
"Y. c #749E52",
"T. c #A9C678",
"R. c #75C102",
"E. c #D3DEBC",
"W. c #378102",
"Q. c #A3DA49",
"!. c #74BF02",
"~. c #C4D3B4",
"^. c #749E01",
"/. c #4F9E02",
"(. c #469302",
"). c #D3DFBB",
"_. c #E0E7D5",
"`. c #6DB002",
"'. c #9EC067",
"]. c #6FA023",
"[. c #94B956",
"{. c #6EB102",
"}. c #448E02",
"|. c #538901",
" X c #589D12",
".X c #397701",
"XX c #539012",
"oX c #6E9901",
"OX c #74C002",
"+X c #9CBE67",
"@X c #B3CC88",
"#X c #69B002",
"$X c #7EA934",
"%X c #559002",
"&X c #D1DEBB",
"*X c #A1BB77",
"=X c #397601",
"-X c #569102",
";X c #5DA402",
":X c #779F34",
">X c #E2E9D7",
",X c #7CAD44",
"<X c #519802",
"1X c #629312",
"2X c #78AD24",
"3X c #5CAA02",
"4X c #76A444",
"5X c #66A702",
"6X c #84A563",
"7X c #5C9802",
"8X c #B8CAA4",
"9X c #D4E1BB",
"0X c #428702",
"qX c #6AB302",
"wX c #689401",
"eX c #7BBB15",
"rX c #AFC688",
"tX c #5A9C02",
"yX c #5EA602",
"uX c #A3BB77",
"iX c #C8D8AA",
"pX c #C3D3A9",
"aX c #D9E3CA",
"sX c #91AD73",
"dX c #4C9702",
"fX c #87A955",
"gX c #588F23",
"hX c #4A9102",
"jX c #F0F3E9",
"kX c #97B274",
"lX c #569C02",
"zX c #9AB475",
"xX c #5AA402",
"cX c #639C13",
"vX c #4A8602",
"bX c #63A613",
"nX c #6DAF02",
"mX c #628F01",
"MX c #B4CD8A",
"NX c #62A702",
"BX c #5B9D02",
"VX c #5CA102",
"CX c #3D7901",
"ZX c #7FAC45",
"AX c #518401",
"SX c #799C44",
"DX c #719643",
/* pixels */
"                                                                ",
"                                                                ",
"                                                                ",
"                                                                ",
"                                                                ",
"                                                                ",
"                                                                ",
"      ; : , f f f f f f f f f f f f f f f f f f f f , : ;       ",
"    u > *.<.3.>.z z z z z z z z z z z z z z z z >.3.<.*.> r     ",
"    a =.Q.q.8.7.x x x x x x x x x x x x x x x x 7.8.q.C.=.i     ",
"    d 1.w.y.j j j j j j j j j j j j j j j j j j j j y.w.1.s     ",
"    ^.OXeXnXm m m `.U.U 5.P.R.!.U 5.6.r.U r.{.m m m m J.6.Z.    ",
"    oXqXMXv v v v v '.T.).[.#X5XiX9X2X@Xp.$Xp.v v v v E.K.N.    ",
"    wXNXb A b b b b +X].Y Y 1XuXA rX7Xb A :X&Xb Y A b b L.V.    ",
"    mXVXW Z AXj.j.BXyXi.*XZ pXd.d.cXtXW Z -X;X%XW Z |.i.G.m.    ",
"    9.g.~ V SXk.k.ZXbX3XR aXV V fXxXlX~ V R P g.~ V R P P 9.    ",
"    2.! Q n n n n n ,Xs.<XzXn jXvXs.! Q n e.K ! Q n e.K K 2.    ",
"    ;.a.E B DXh.h.4X X/.XX>XB B kXdXhXE B 0.H a.E B 0.H H ;.    ",
"    $.N T C CXN N }.(.N u.C u.f.f.gX0XT C 4.G N T C 4.G G $.    ",
"    +.,.I M sXt.t.I.F.D.M _..X6XM 8X=XI M -.S ,.I M -.S S +.    ",
"    } &.~.c c c c c L B.c A.H.W.L c Y.L c @./ &.x.c @.z./ }     ",
"    ) D S.:.J J J :.v.c.%.b.M.D F %.F n.X._ ^ D F X._ l.^ )     ",
"    p { O.#.h h h h h h h h h h h h h h h h h h h h #.O.{ q     ",
"    * ]  .o...` l l l l l l l l l l l l l l l l ` ..o. .] *     ",
"  . y = [ | ' ( k k k k k k k k k k k k k k k k ( ' | [ = 7 5   ",
"O 0 w t & - g g g g g g g g g g g g g g g g g g g g - & 8 + 3 O ",
"O % 9 e # # # @ # # # # # # + # # # # # + + @ # # # # @ 4 2 <   ",
"  1 6 $ X % % $ $ $ $ $ o % $ $ o $ $ $ $ $ $ % $ $ $ % X . O   ",
"                                                                ",
"                                                                ",
"                                                                ",
"                                                                "
};
