/* XPM */
static char *d38e553b9b16445dcbdb9e8e748bf4d5HLQiUFP20TOEU0YN[] = {
/* columns rows colors chars-per-pixel */
"32 32 11 1 ",
"  c None",
". c black",
"X c #5C2167",
"o c #E1060A",
"O c #C63D76",
"+ c #4F23C8",
"@ c #7949FF",
"# c #8A6E9C",
"$ c #B3A6D1",
"% c #A68AF6",
"& c #C9FCE4",
/* pixels */
"                                ",
"                                ",
"                            ....",
"                           .$$#.",
"                          .$$##.",
"                         .$$##$.",
"                        .$$##$. ",
"                       .$$##$.  ",
"                     ..$$##$.   ",
"                    .$$$##$.    ",
"                   .$$$##$.     ",
"                  .$$$##$.      ",
"                ..$$$##$#.      ",
"               .$$$$##$#.       ",
"              .$$$$##$#.        ",
"       ...   .$$$$##$#.         ",
"       .@@...$$$$##$$.          ",
"       .@@+@%@@###$$#.          ",
"        .+O@&&@@##$#.           ",
"        .@@&&&&@@##.            ",
"        .@&&oo&&@#.             ",
"        .@&&oo&&@.              ",
"        .@@&&&&@@.              ",
"        .$@@&&+O+.              ",
"       .XX$+++++@@.             ",
"      .XXX......++.             ",
"    ..XXX.      ...             ",
"   .%%XX.                       ",
"  .%%@@.                        ",
"  .@@@@.                        ",
"   .@@.                         ",
"    ..                          "
};
