/* XPM */
static char *_833e56cc65c4161b0f216e455c9cd49QmiQAMucDV4R14tC[] = {
/* columns rows colors chars-per-pixel */
"32 32 7 1 ",
"  c None",
". c #C3412D",
"X c #F07131",
"o c #FFAA32",
"O c #FFE65A",
"+ c #FFCC85",
"@ c white",
/* pixels */
"                                ",
"                                ",
"                                ",
"                                ",
"            OO@@OO@@            ",
"         OOOXXXXXXXX@@@         ",
"       OOXXXo++oo+++XXXOO       ",
"      OXXooo++oo++++++oXXO      ",
"     OXooooo++oo+++++ooooXO     ",
"    OXooooo++oo++++++oooooXO    ",
"   OXoooooo++oo+++++oooooooXO   ",
"   Ooooooo++oo@@@@++ooooooooO   ",
"  OXoooooo++oOXXXX@oooooooooXO  ",
"  Ooooooo++oOXXXXXXOoooooooooO  ",
"  Ooooooo++o@XXXXXXOoooooooooO  ",
"  Oooooo++ooX@    OXoooooooooO  ",
"  Oooooo++oo+X@@@OXooooooooooO  ",
"  OOooo++oo+++XXXXooooooooooOO  ",
"  OXOoo++oo+++++oooooooooooOXO  ",
"  .XXO++oo++++++ooooooooooOXX.  ",
"   .XX@+oo+++++ooooooooooOXX.   ",
"    .XXOO++++++ooooooooOOXX.    ",
"     .XXX@@@++ooooooOOOXXX.     ",
"      .XXXXX@@OOOOOOXXXXX.      ",
"       ..XXXXXXXXXXXXXX..       ",
"         ...XXXXXXXX...         ",
"            ........            ",
"                                ",
"                                ",
"                                ",
"                                ",
"                                "
};
