/* XPM */
static char *_e052cb16f1a49c8cc6244adf57eda8a11I8Gx9hWYRh5RbI[] = {
/* columns rows colors chars-per-pixel */
"25 32 179 2 ",
"   c None",
".  c #75201D",
"X  c #7C211D",
"o  c #722926",
"O  c #66332F",
"+  c #6C3936",
"@  c #6B3532",
"#  c #7B3936",
"$  c #6E4E45",
"%  c #774A46",
"&  c #7A5148",
"*  c #6E7E70",
"=  c #7F7573",
"-  c #8F1F1D",
";  c #861D1A",
":  c #921E1B",
">  c #8A211E",
",  c #96201D",
"<  c #9F221F",
"1  c #AB211F",
"2  c #862522",
"3  c #942623",
"4  c #982421",
"5  c #962C29",
"6  c #84312E",
"7  c #95312E",
"8  c #823835",
"9  c #953432",
"0  c #943A36",
"q  c #9A3937",
"w  c #AA2524",
"e  c #A72826",
"r  c #AC2927",
"t  c #A72A28",
"y  c #B32423",
"u  c #BB2627",
"i  c #B52B2A",
"p  c #B92D2D",
"a  c #AC312E",
"s  c #A43432",
"d  c #AE3433",
"f  c #A53A36",
"g  c #AE3836",
"h  c #A83D39",
"j  c #B53533",
"k  c #BC3635",
"l  c #B53837",
"z  c #BF3837",
"x  c #BA3C3A",
"c  c #C02E2E",
"v  c #C02425",
"b  c #CD3D3E",
"n  c #D73B3D",
"m  c #9A413F",
"M  c #A4423D",
"N  c #A8403E",
"B  c #BB403E",
"V  c #8C4441",
"C  c #844D4A",
"Z  c #854744",
"A  c #914640",
"S  c #944D46",
"D  c #9B4F4D",
"F  c #8A5654",
"G  c #9E5150",
"H  c #9A5950",
"J  c #995B59",
"K  c #A64240",
"L  c #AF4240",
"P  c #A94A48",
"I  c #A54C46",
"U  c #B94543",
"Y  c #B34A44",
"T  c #BD4947",
"R  c #BA4D4D",
"E  c #A1594F",
"W  c #A9514B",
"Q  c #B6544B",
"!  c #A45250",
"~  c #AF5351",
"^  c #AB5C5B",
"/  c #B05F58",
"(  c #B45452",
")  c #8E6256",
"_  c #A7675B",
"`  c #BA695B",
"'  c #9F7F72",
"]  c #9B7474",
"[  c #AF6762",
"{  c #A26F6F",
"}  c #A96F6D",
"|  c #AE6963",
" . c #BB6462",
".. c #BB6F6E",
"X. c #A97668",
"o. c #A67D6C",
"O. c #AF7F7E",
"+. c #AA7372",
"@. c #BD7473",
"#. c #B37F7F",
"$. c #C64D4C",
"%. c #CA504F",
"&. c #C6554E",
"*. c #C25454",
"=. c #E05D5F",
"-. c #C46966",
";. c #C17465",
":. c #C87064",
">. c #C77F6C",
",. c #C67D79",
"<. c #CB7C7B",
"1. c #D77E7C",
"2. c #898870",
"3. c #8E8D7D",
"4. c #AD8673",
"5. c #B68C77",
"6. c #B58876",
"7. c #BC927D",
"8. c #C48E7F",
"9. c #C98979",
"0. c #8F9394",
"q. c #969D9F",
"w. c #B88684",
"e. c #A39981",
"r. c #BB908C",
"t. c #BEAF9C",
"y. c #B0A694",
"u. c #A0A0A0",
"i. c #A6AAA9",
"p. c #BDB7B0",
"a. c #B8BFBD",
"s. c #B3B8B7",
"d. c #C58C8B",
"f. c #C18685",
"g. c #D58683",
"h. c #D58886",
"j. c #D18B8B",
"k. c #CA9C84",
"l. c #D69A85",
"z. c #DB9491",
"x. c #CEA48B",
"c. c #DBA48D",
"v. c #D4AA8D",
"b. c #D8AE8F",
"n. c #D3A68E",
"m. c #C8AC98",
"M. c #CFAA93",
"N. c #D1AC93",
"B. c #DBAD92",
"V. c #DFA49F",
"C. c #C6B09A",
"Z. c #DCB294",
"A. c #DEB699",
"S. c #D7B399",
"D. c #E4AE96",
"F. c #E0B797",
"G. c #E2B39A",
"H. c #ECB49C",
"J. c #E2BB9D",
"K. c #EABA9E",
"L. c #F0B79E",
"P. c #D2AEA8",
"I. c #D0B5B0",
"U. c #EEB3A0",
"Y. c #E3BFA1",
"T. c #EEBAA0",
"R. c #F4B7A0",
"E. c #F3BCA6",
"W. c #C6C3B8",
"Q. c #D2C3B4",
"!. c #E8C3A9",
"~. c #F2C3A7",
"^. c #E5C8B5",
"/. c #F8D2BE",
"(. c #BEC5C3",
"). c #C2C9C6",
"_. c #D7D1CA",
"`. c #DBDFD7",
"'. c #DEE6DF",
/* pixels */
"                                                  ",
"                        6 O C                     ",
"                  U i W & $ % 0                   ",
"                a d a X.o.4.7.5.Q                 ",
"              e L Y ;.N.N.A.J.Y.B.&.              ",
"            N s < Y A.Y.S.A.A.F.J.l.k             ",
"            K P < >.J.F.b.B.b.Z.Z.c.U             ",
"            4 4 f k.Z.v.x.v.A.S.N.N.|             ",
"          q 5 : / x.N.m.M.Z.J.3.W.^.W             ",
"          m 9 - M x.y.* Q.J.!.2.t./.9.            ",
"          > ; 0 [ x.C.e.!.K.~.~.L.R.U.            ",
"          2 2 2 I n.H.R.~.K.G.~.K.D.c.            ",
"            V X 0 7.B.H.K.K.T.E.~.G.;.            ",
"              . 8 H 5.N.A.B.c.G.G.`               ",
"                o . A _ 6.7.k.9.Q g               ",
"                + + @ o 7 f h j g r i             ",
"              (.s.i.F # j R Z V I.,.l             ",
"              ).a.u.C 3 $.P.r.% a.'.              ",
"              a.0.% Z r._.`.,.] ).                ",
"              q.= ) S ~  .-.j 8.p.                ",
"                ' o.E s a T x l.                  ",
"                  S M ( w 1 k :.                  ",
"                  G s 1 r U u u                   ",
"                  3 e i j -.p $.                  ",
"                  , a g.z y y %.                  ",
"                  4 w x i u k c v                 ",
"                ! ^ e w y B V.g.*.j.              ",
"                #.w.@.....@.f.d.d.d.              ",
"                { +.w.O.#.} J D ^  .              ",
"                  U R !   # 9 p b n =.            ",
"                  <.g.h.          1.z.            ",
"                                                  "
};
