/* XPM */
static char *_388e7e2a8784251b69f9a1eeb42a84bxDUyo2i2zpiWCOOU[] = {
/* columns rows colors chars-per-pixel */
"32 32 8 1 ",
"  c None",
". c #151D28",
"X c #172038",
"o c #202E37",
"O c #394A50",
"+ c #577277",
"@ c #819796",
"# c #A8B5B2",
/* pixels */
"                                ",
"                                ",
"                                ",
"                                ",
"            @####+              ",
"           +#@@##@@O+           ",
"          +@@@@@@@@O+           ",
"         @@@@@@@@@@@O+          ",
"       ##@@@@@@@@@@@@@+         ",
"      #@@@@@@@@@@@@@@@O+        ",
"      @@@@@@@@@@@@@@@@@+O       ",
"      @@@@@@@@@@@@@@@@@OO       ",
"      @@@@@@@@@@@@@@@@@@OO      ",
"     O#@@@@@@@@@@@@@@@@OOOX     ",
"    O##@@@@@@@@@@@@@@@OOOOX     ",
"    O##@@@@@@@@@@@@@@OOOOOOX    ",
"    O++#@@@@@@@@@@@@@OOOOOOX    ",
"    O++#@@@@@@@@@@@@+OOOOOOX    ",
"    O+++@@@@@@@@@@@+OOOOOOOX    ",
"    OO++++@@@@@@@@@+OOOOOOXX    ",
"    oOO++++@@@@@++++OOOOOOX.    ",
"    O@@++++++++++++++OOOOX.     ",
"    ++@@@++++++++++++O+OOo.     ",
"    +++++@O+++O+++++++oOo+o.    ",
"    +++++++OOO.o.+++++o++OOo    ",
"    O++++++@O.ooo..ooO+OOOOo    ",
"     +++++++@@@+oooo++OOOOo     ",
"      O+++++++++O.o++OOOOo      ",
"        O++++++oo.o+OOOo        ",
"         O++++o.. .o+O          ",
"          Oooo.                 ",
"                                "
};
