/* XPM */
static char *_58caa0d8bb04fb48243036174b9dfc0Ux6tZVe7XVu2sI4O[] = {
/* columns rows colors chars-per-pixel */
"32 32 150 2 ",
"   c None",
".  c #562827",
"X  c #532728",
"o  c #552A2A",
"O  c #5C2D2A",
"+  c #5D312F",
"@  c #583136",
"#  c #5A323E",
"$  c #612F29",
"%  c #66332B",
"&  c #6B352B",
"*  c #6E3A2E",
"=  c #733B2D",
"-  c #783F2D",
";  c #633036",
":  c #6C3136",
">  c #6A3A31",
",  c #7D432F",
"<  c #5E3245",
"1  c #5F3348",
"2  c #61374F",
"3  c #623D4E",
"4  c #7E3945",
"5  c #7C374E",
"6  c #763D49",
"7  c #6A3C5C",
"8  c #6C3F63",
"9  c #773F66",
"0  c #6D4265",
"q  c #734367",
"w  c #764269",
"e  c #7D436B",
"r  c #864B33",
"t  c #853C46",
"y  c #8D405B",
"u  c #A24A59",
"i  c #874163",
"p  c #85436D",
"a  c #8B496E",
"s  c #944166",
"d  c #9E4669",
"f  c #8C4571",
"g  c #934573",
"h  c #9C4676",
"j  c #944A74",
"k  c #9B4B75",
"l  c #9C4C7A",
"z  c #9E507C",
"x  c #A7496B",
"c  c #AD4B6C",
"v  c #A14B75",
"b  c #A24779",
"n  c #A44B7A",
"m  c #AA4C7B",
"M  c #B44E75",
"N  c #B34E7D",
"B  c #A2507C",
"V  c #AB537A",
"C  c #B4507D",
"Z  c #BB537E",
"A  c #C5557C",
"S  c #AC5580",
"D  c #B85581",
"F  c #BC5882",
"G  c #C55581",
"H  c #CA5781",
"J  c #CC5C83",
"K  c #D25C84",
"L  c #D95F86",
"P  c #C36180",
"I  c #CB6384",
"U  c #CE6A84",
"Y  c #CF6088",
"T  c #D26386",
"R  c #DC6187",
"E  c #D36A86",
"W  c #DE6688",
"Q  c #DE6888",
"!  c #D47289",
"~  c #E06788",
"^  c #E56C8A",
"/  c #E3728A",
"(  c #EC738C",
")  c #E67A8F",
"_  c #EE798E",
"`  c #F27B8E",
"'  c #EB7A90",
"]  c #F67F90",
"[  c #F6808F",
"{  c #EC8291",
"}  c #EE8994",
"|  c #F48391",
" . c #F88491",
".. c #F58A94",
"X. c #F98C94",
"o. c #F99496",
"O. c #FA9897",
"+. c #F69399",
"@. c #F99698",
"#. c #F69A9B",
"$. c #FA9B99",
"%. c #FBA39C",
"&. c #FBA09D",
"*. c #FCA39C",
"=. c #FAA49E",
"-. c #FAA69F",
";. c #FCA59C",
":. c #FDA69D",
">. c #F9A19B",
",. c #FBA89E",
"<. c #FCA89E",
"1. c #FEA99E",
"2. c #FDAB9F",
"3. c #FEAB9F",
"4. c #F7A0A0",
"5. c #FAA9A1",
"6. c #FCABA0",
"7. c #FBACA1",
"8. c #FAAEA3",
"9. c #FDADA1",
"0. c #FDAFA1",
"q. c #FCADA2",
"w. c #FCAFA2",
"e. c #FDB1A3",
"r. c #FBB1A5",
"t. c #FBB2A5",
"y. c #FBB2A6",
"u. c #FCB3A4",
"i. c #FCB5A7",
"p. c #FDB6A7",
"a. c #FBB6A8",
"s. c #FCB7A9",
"d. c #FBB9AA",
"f. c #FCB9A9",
"g. c #FCBBAA",
"h. c #FDBDAB",
"j. c #FCBDAD",
"k. c #FCBEAC",
"l. c #FDC2AE",
"z. c #FCC0B0",
"x. c #FDC3B0",
"c. c #FDC5B1",
"v. c #FEC4B0",
"b. c #FEC6B1",
"n. c #FCC5B2",
"m. c #FDC7B2",
"M. c #FEC7B2",
"N. c #FCC9B5",
"B. c #FECBB4",
"V. c #FFCCB5",
/* pixels */
"                                                                ",
"                                                                ",
"                            z.  r.6.r.z.m.                      ",
"                        N.g.m.m.j.=.0.m.r.+...#.                ",
"                7.=.@.7.m.N.V.V.m.a.e.1.@.o.@.X.                ",
"              d.u.g.1.p.N.N.V.z.p.l.0.0.0.:.$.X.'               ",
"          +.5.0.0.j.6.0.s.r.h.=.*.0.%.0.h.0.$.$.^ _ |           ",
"      ..X.@.$.%.@.@.$.,.%.:.1.1.e.#.) %.1.#.{ @.` `  ...        ",
"      .._ $.r.%.$.X.$.} { %.1.$.%.4.| X.$.%...@.$. .` ( /       ",
"    #._ } $.@.X.@.o.| _ ( ..%.X.o. .o.X. .@.o.| {  .| { Q Y     ",
"      o.X.X. .X. . . . .]  .|  .$.|  . . . . . . .` { | E k     ",
"    +...| | | o.` [ _ ( `  .]  . .Q ^ / / ` ( ..X.( R K m f     ",
"    | I ! T Q U J Q ~ R ( ^ ` / Q R Z Z J / / P E K G h l       ",
"        B Z m k G N K ^ L K R J K L N Z j e V Z k f a q         ",
"          l j m G Z T E G N H K Q I m G k 8 g n p w             ",
"              V m j k m C g b m Z n h N C p g f 0               ",
"                j 8 g b h g f p e p g h g e 9 p                 ",
"                  0 e p v i 7 1 < 8 w p 7 0 2 i                 ",
"                      0 q   # o X       # 3 @                   ",
"                              . . X       .                     ",
"                              * % .     o                       ",
"                              r = O   >                         ",
"                              , * O %                           ",
"                              = & .                             ",
"                            O & & .                             ",
"                            * = $ X                             ",
"                          + - - % O ; k                         ",
"                      l 6 % = = % & O y S z                     ",
"                    F m d 4 u t : % 4 s Z N l                   ",
"                  D N Z A c H A x 5 M C N m l                   ",
"                    l b m V m m n l S b h l                     ",
"                                                                "
};
